# This file uses centimeters as units for non-parametric coordinates.

mtllib inwardCube.mtl
g default
v -0.500000 -0.500000 0.500000
v 0.500000 -0.500000 0.500000
v -0.500000 0.500000 0.500000
v 0.500000 0.500000 0.500000
v -0.500000 0.500000 -0.500000
v 0.500000 0.500000 -0.500000
v -0.500000 -0.500000 -0.500000
v 0.500000 -0.500000 -0.500000
vt 0.752074 0.375118
vt 0.999975 0.375219
vt 0.499820 0.875048
vt 0.000000 0.624700
vt 0.499820 0.625049
vt 0.250282 0.624874
vt 0.499820 0.375049
vt 0.250282 0.374874
vt 0.499820 0.125049
vt 0.250364 0.125049
vt 0.499934 0.375118
vt 0.499934 0.624767
vt 0.751969 0.375219
vt 0.751969 0.624793
vt 0.752074 0.624788
vt 0.250364 0.875048
vt 0.000000 0.374700
vt 0.999975 0.624777
vn 0.000000 0.000000 -1.000000
vn 0.000000 0.000000 -1.000000
vn 0.000000 0.000000 -1.000000
vn 0.000000 0.000000 -1.000000
vn 0.000000 -1.000000 0.000000
vn 0.000000 -1.000000 0.000000
vn 0.000000 -1.000000 0.000000
vn 0.000000 -1.000000 0.000000
vn 0.000000 0.000000 1.000000
vn 0.000000 0.000000 1.000000
vn 0.000000 0.000000 1.000000
vn 0.000000 0.000000 1.000000
vn 0.000000 1.000000 0.000000
vn 0.000000 1.000000 0.000000
vn 0.000000 1.000000 0.000000
vn 0.000000 1.000000 0.000000
vn -1.000000 0.000000 0.000000
vn -1.000000 0.000000 0.000000
vn -1.000000 0.000000 0.000000
vn -1.000000 0.000000 0.000000
vn 1.000000 0.000000 0.000000
vn 1.000000 0.000000 0.000000
vn 1.000000 0.000000 0.000000
vn 1.000000 0.000000 0.000000
s 1
g pCube1
# This comment is also pointless
usemtl initialShadingGroup
f 1/13/1 3/14/2 2/2/3
f 3/14/2 4/18/4 2/2/3
s 2
f 3/3/5 5/5/6 4/16/7
f 5/5/6 6/6/8 4/16/7
s 3
f 5/5/9 7/7/10 6/6/11
f 7/7/10 8/8/12 6/6/11
s 4
f 7/7/13 1/9/14 8/8/15
f 1/9/14 2/10/16 8/8/15
s 5
f 2/17/17 4/4/18 8/8/19
f 4/4/18 6/6/20 8/8/19
s 6
f 7/11/21 5/12/22 1/1/23
f 5/12/22 3/15/24 1/1/23
g default
v -0.500000 -0.500000 0.500000
v 0.500000 -0.500000 0.500000
v -0.500000 0.500000 0.500000
v 0.500000 0.500000 0.500000
v -0.500000 0.500000 -0.500000
v 0.500000 0.500000 -0.500000
v -0.500000 -0.500000 -0.500000
v 0.500000 -0.500000 -0.500000
vt 0.752074 0.375118
vt 0.999975 0.375219
vt 0.499820 0.875048
vt 0.000000 0.624700
vt 0.499820 0.625049
vt 0.250282 0.624874
vt 0.499820 0.375049
vt 0.250282 0.374874
vt 0.499820 0.125049
vt 0.250364 0.125049
vt 0.499934 0.375118
vt 0.499934 0.624767
vt 0.751969 0.375219
vt 0.751969 0.624793
vt 0.752074 0.624788
vt 0.250364 0.875048
vt 0.000000 0.374700
vt 0.999975 0.624777
vn 0.000000 0.000000 -1.000000
vn 0.000000 0.000000 -1.000000
vn 0.000000 0.000000 -1.000000
vn 0.000000 0.000000 -1.000000
vn 0.000000 -1.000000 0.000000
vn 0.000000 -1.000000 0.000000
vn 0.000000 -1.000000 0.000000
vn 0.000000 -1.000000 0.000000
vn 0.000000 0.000000 1.000000
vn 0.000000 0.000000 1.000000
vn 0.000000 0.000000 1.000000
vn 0.000000 0.000000 1.000000
vn 0.000000 1.000000 0.000000
vn 0.000000 1.000000 0.000000
vn 0.000000 1.000000 0.000000
vn 0.000000 1.000000 0.000000
vn -1.000000 0.000000 0.000000
vn -1.000000 0.000000 0.000000
vn -1.000000 0.000000 0.000000
vn -1.000000 0.000000 0.000000
vn 1.000000 0.000000 0.000000
vn 1.000000 0.000000 0.000000
vn 1.000000 0.000000 0.000000
vn 1.000000 0.000000 0.000000
s 1
g pCube1
f 9/31/25 11/32/26 10/20/27
f 11/32/26 12/36/28 10/20/27
s 2
f 11/21/29 13/23/30 12/34/31
f 13/23/30 14/24/32 12/34/31
s 3
f 13/23/33 15/25/34 14/24/35
f 15/25/34 16/26/36 14/24/35
s 4
f 15/25/37 9/27/38 16/26/39
f 9/27/38 10/28/40 16/26/39
s 5
f 10/35/41 12/22/42 16/26/43
f 12/22/42 14/24/44 16/26/43
s 6
f 15/29/45 13/30/46 9/19/47
f 13/30/46 11/33/48 9/19/47
